<svg width="223" height="17" viewBox="0 0 223 17" fill="none" xmlns="http://www.w3.org/2000/svg">
<path d="M2.024 1.42297V12.543H0.2V1.42297H2.024ZM7.967 8.12697C7.967 7.2203 8.14833 6.42564 8.511 5.74297C8.88433 5.04964 9.39633 4.5163 10.047 4.14297C10.6977 3.76964 11.4443 3.58297 12.287 3.58297C13.3537 3.58297 14.2337 3.83897 14.927 4.35097C15.631 4.8523 16.1057 5.5723 16.351 6.51097H14.383C14.223 6.07364 13.967 5.7323 13.615 5.48697C13.263 5.24164 12.8203 5.11897 12.287 5.11897C11.5403 5.11897 10.943 5.38564 10.495 5.91897C10.0577 6.44164 9.839 7.17764 9.839 8.12697C9.839 9.0763 10.0577 9.81764 10.495 10.351C10.943 10.8843 11.5403 11.151 12.287 11.151C13.343 11.151 14.0417 10.687 14.383 9.75897H16.351C16.095 10.655 15.615 11.3696 14.911 11.903C14.207 12.4256 13.3323 12.687 12.287 12.687C11.4443 12.687 10.6977 12.5003 10.047 12.127C9.39633 11.743 8.88433 11.2096 8.511 10.527C8.14833 9.83364 7.967 9.03364 7.967 8.12697ZM17.5608 8.09497C17.5608 7.20963 17.7421 6.42564 18.1048 5.74297C18.4781 5.0603 18.9794 4.5323 19.6088 4.15897C20.2488 3.77497 20.9528 3.58297 21.7208 3.58297C22.4141 3.58297 23.0168 3.72164 23.5288 3.99897C24.0514 4.26564 24.4674 4.60164 24.7768 5.00697V3.72697H26.6168V12.543H24.7768V11.231C24.4674 11.647 24.0461 11.9936 23.5128 12.271C22.9794 12.5483 22.3714 12.687 21.6888 12.687C20.9314 12.687 20.2381 12.495 19.6088 12.111C18.9794 11.7163 18.4781 11.1723 18.1048 10.479C17.7421 9.77497 17.5608 8.9803 17.5608 8.09497ZM24.7768 8.12697C24.7768 7.51897 24.6488 6.99097 24.3928 6.54297C24.1474 6.09497 23.8221 5.75364 23.4168 5.51897C23.0114 5.2843 22.5741 5.16697 22.1048 5.16697C21.6354 5.16697 21.1981 5.2843 20.7928 5.51897C20.3874 5.74297 20.0568 6.07897 19.8008 6.52697C19.5554 6.9643 19.4328 7.48697 19.4328 8.09497C19.4328 8.70297 19.5554 9.2363 19.8008 9.69497C20.0568 10.1536 20.3874 10.5056 20.7928 10.751C21.2088 10.9856 21.6461 11.103 22.1048 11.103C22.5741 11.103 23.0114 10.9856 23.4168 10.751C23.8221 10.5163 24.1474 10.175 24.3928 9.72697C24.6488 9.2683 24.7768 8.73497 24.7768 8.12697ZM33.4605 3.58297C34.1538 3.58297 34.7725 3.72697 35.3165 4.01497C35.8712 4.30297 36.3032 4.72963 36.6125 5.29497C36.9218 5.8603 37.0765 6.54297 37.0765 7.34297V12.543H35.2685V7.61497C35.2685 6.82563 35.0712 6.22297 34.6765 5.80697C34.2818 5.3803 33.7432 5.16697 33.0605 5.16697C32.3778 5.16697 31.8338 5.3803 31.4285 5.80697C31.0338 6.22297 30.8365 6.82563 30.8365 7.61497V12.543H29.0125V3.72697H30.8365V4.73497C31.1352 4.3723 31.5138 4.08964 31.9725 3.88697C32.4418 3.6843 32.9378 3.58297 33.4605 3.58297ZM45.6874 5.21497V10.095C45.6874 10.4256 45.762 10.6656 45.9114 10.815C46.0714 10.9536 46.338 11.023 46.7114 11.023H47.8314V12.543H46.3914C45.57 12.543 44.9407 12.351 44.5034 11.967C44.066 11.583 43.8474 10.959 43.8474 10.095V5.21497H42.8074V3.72697H43.8474V1.53497H45.6874V3.72697H47.8314V5.21497H45.6874ZM48.9045 8.09497C48.9045 7.20963 49.0858 6.42564 49.4485 5.74297C49.8218 5.0603 50.3232 4.5323 50.9525 4.15897C51.5925 3.77497 52.2965 3.58297 53.0645 3.58297C53.7578 3.58297 54.3605 3.72164 54.8725 3.99897C55.3952 4.26564 55.8112 4.60164 56.1205 5.00697V3.72697H57.9605V12.543H56.1205V11.231C55.8112 11.647 55.3898 11.9936 54.8565 12.271C54.3232 12.5483 53.7152 12.687 53.0325 12.687C52.2752 12.687 51.5818 12.495 50.9525 12.111C50.3232 11.7163 49.8218 11.1723 49.4485 10.479C49.0858 9.77497 48.9045 8.9803 48.9045 8.09497ZM56.1205 8.12697C56.1205 7.51897 55.9925 6.99097 55.7365 6.54297C55.4912 6.09497 55.1658 5.75364 54.7605 5.51897C54.3552 5.2843 53.9178 5.16697 53.4485 5.16697C52.9792 5.16697 52.5418 5.2843 52.1365 5.51897C51.7312 5.74297 51.4005 6.07897 51.1445 6.52697C50.8992 6.9643 50.7765 7.48697 50.7765 8.09497C50.7765 8.70297 50.8992 9.2363 51.1445 9.69497C51.4005 10.1536 51.7312 10.5056 52.1365 10.751C52.5525 10.9856 52.9898 11.103 53.4485 11.103C53.9178 11.103 54.3552 10.9856 54.7605 10.751C55.1658 10.5163 55.4912 10.175 55.7365 9.72697C55.9925 9.2683 56.1205 8.73497 56.1205 8.12697ZM63.8443 8.14297L67.9083 12.543H65.4443L62.1803 8.75097V12.543H60.3563V0.702969H62.1803V7.58297L65.3803 3.72697H67.9083L63.8443 8.14297ZM77.2956 7.91897C77.2956 8.24964 77.2743 8.5483 77.2316 8.81497H70.4956C70.549 9.51897 70.8103 10.0843 71.2796 10.511C71.749 10.9376 72.325 11.151 73.0076 11.151C73.989 11.151 74.6823 10.7403 75.0876 9.91897H77.0556C76.789 10.7296 76.3036 11.3963 75.5996 11.919C74.9063 12.431 74.0423 12.687 73.0076 12.687C72.165 12.687 71.4076 12.5003 70.7356 12.127C70.0743 11.743 69.5516 11.2096 69.1676 10.527C68.7943 9.83364 68.6076 9.03364 68.6076 8.12697C68.6076 7.2203 68.789 6.42564 69.1516 5.74297C69.525 5.04964 70.0423 4.5163 70.7036 4.14297C71.3756 3.76964 72.1436 3.58297 73.0076 3.58297C73.8396 3.58297 74.581 3.7643 75.2316 4.12697C75.8823 4.48964 76.389 5.00164 76.7516 5.66297C77.1143 6.31364 77.2956 7.06564 77.2956 7.91897ZM75.3916 7.34297C75.381 6.67097 75.141 6.1323 74.6716 5.72697C74.2023 5.32164 73.621 5.11897 72.9276 5.11897C72.2983 5.11897 71.7596 5.32164 71.3116 5.72697C70.8636 6.12163 70.597 6.6603 70.5116 7.34297H75.3916ZM82.6389 8.12697C82.6389 7.2203 82.8202 6.42564 83.1829 5.74297C83.5562 5.04964 84.0682 4.5163 84.7189 4.14297C85.3695 3.76964 86.1162 3.58297 86.9589 3.58297C88.0255 3.58297 88.9055 3.83897 89.5989 4.35097C90.3029 4.8523 90.7775 5.5723 91.0229 6.51097H89.0549C88.8949 6.07364 88.6389 5.7323 88.2869 5.48697C87.9349 5.24164 87.4922 5.11897 86.9589 5.11897C86.2122 5.11897 85.6149 5.38564 85.1669 5.91897C84.7295 6.44164 84.5109 7.17764 84.5109 8.12697C84.5109 9.0763 84.7295 9.81764 85.1669 10.351C85.6149 10.8843 86.2122 11.151 86.9589 11.151C88.0149 11.151 88.7135 10.687 89.0549 9.75897H91.0229C90.7669 10.655 90.2869 11.3696 89.5829 11.903C88.8789 12.4256 88.0042 12.687 86.9589 12.687C86.1162 12.687 85.3695 12.5003 84.7189 12.127C84.0682 11.743 83.5562 11.2096 83.1829 10.527C82.8202 9.83364 82.6389 9.03364 82.6389 8.12697ZM92.2326 8.09497C92.2326 7.20963 92.414 6.42564 92.7766 5.74297C93.15 5.0603 93.6513 4.5323 94.2806 4.15897C94.9206 3.77497 95.6246 3.58297 96.3926 3.58297C97.086 3.58297 97.6886 3.72164 98.2006 3.99897C98.7233 4.26564 99.1393 4.60164 99.4486 5.00697V3.72697H101.289V12.543H99.4486V11.231C99.1393 11.647 98.718 11.9936 98.1846 12.271C97.6513 12.5483 97.0433 12.687 96.3606 12.687C95.6033 12.687 94.91 12.495 94.2806 12.111C93.6513 11.7163 93.15 11.1723 92.7766 10.479C92.414 9.77497 92.2326 8.9803 92.2326 8.09497ZM99.4486 8.12697C99.4486 7.51897 99.3206 6.99097 99.0646 6.54297C98.8193 6.09497 98.494 5.75364 98.0886 5.51897C97.6833 5.2843 97.246 5.16697 96.7766 5.16697C96.3073 5.16697 95.87 5.2843 95.4646 5.51897C95.0593 5.74297 94.7286 6.07897 94.4726 6.52697C94.2273 6.9643 94.1046 7.48697 94.1046 8.09497C94.1046 8.70297 94.2273 9.2363 94.4726 9.69497C94.7286 10.1536 95.0593 10.5056 95.4646 10.751C95.8806 10.9856 96.318 11.103 96.7766 11.103C97.246 11.103 97.6833 10.9856 98.0886 10.751C98.494 10.5163 98.8193 10.175 99.0646 9.72697C99.3206 9.2683 99.4486 8.73497 99.4486 8.12697ZM105.508 5.00697C105.775 4.55897 106.127 4.2123 106.564 3.96697C107.012 3.71097 107.54 3.58297 108.148 3.58297V5.47097H107.684C106.97 5.47097 106.426 5.6523 106.052 6.01497C105.69 6.37764 105.508 7.00697 105.508 7.90297V12.543H103.684V3.72697H105.508V5.00697ZM117.905 7.91897C117.905 8.24964 117.884 8.5483 117.841 8.81497H111.105C111.158 9.51897 111.42 10.0843 111.889 10.511C112.358 10.9376 112.934 11.151 113.617 11.151C114.598 11.151 115.292 10.7403 115.697 9.91897H117.665C117.398 10.7296 116.913 11.3963 116.209 11.919C115.516 12.431 114.652 12.687 113.617 12.687C112.774 12.687 112.017 12.5003 111.345 12.127C110.684 11.743 110.161 11.2096 109.777 10.527C109.404 9.83364 109.217 9.03364 109.217 8.12697C109.217 7.2203 109.398 6.42564 109.761 5.74297C110.134 5.04964 110.652 4.5163 111.313 4.14297C111.985 3.76964 112.753 3.58297 113.617 3.58297C114.449 3.58297 115.19 3.7643 115.841 4.12697C116.492 4.48964 116.998 5.00164 117.361 5.66297C117.724 6.31364 117.905 7.06564 117.905 7.91897ZM116.001 7.34297C115.99 6.67097 115.75 6.1323 115.281 5.72697C114.812 5.32164 114.23 5.11897 113.537 5.11897C112.908 5.11897 112.369 5.32164 111.921 5.72697C111.473 6.12163 111.206 6.6603 111.121 7.34297H116.001ZM127.68 12.687C126.848 12.687 126.096 12.5003 125.424 12.127C124.752 11.743 124.224 11.2096 123.84 10.527C123.456 9.83364 123.264 9.03364 123.264 8.12697C123.264 7.23097 123.462 6.4363 123.856 5.74297C124.251 5.04964 124.79 4.5163 125.472 4.14297C126.155 3.76964 126.918 3.58297 127.76 3.58297C128.603 3.58297 129.366 3.76964 130.048 4.14297C130.731 4.5163 131.27 5.04964 131.664 5.74297C132.059 6.4363 132.256 7.23097 132.256 8.12697C132.256 9.02297 132.054 9.81764 131.648 10.511C131.243 11.2043 130.688 11.743 129.984 12.127C129.291 12.5003 128.523 12.687 127.68 12.687ZM127.68 11.103C128.15 11.103 128.587 10.991 128.992 10.767C129.408 10.543 129.744 10.207 130 9.75897C130.256 9.31097 130.384 8.76697 130.384 8.12697C130.384 7.48697 130.262 6.9483 130.016 6.51097C129.771 6.06297 129.446 5.72697 129.04 5.50297C128.635 5.27897 128.198 5.16697 127.728 5.16697C127.259 5.16697 126.822 5.27897 126.416 5.50297C126.022 5.72697 125.707 6.06297 125.472 6.51097C125.238 6.9483 125.12 7.48697 125.12 8.12697C125.12 9.0763 125.36 9.8123 125.84 10.335C126.331 10.847 126.944 11.103 127.68 11.103ZM137.755 5.21497H136.123V12.543H134.283V5.21497H133.243V3.72697H134.283V3.10297C134.283 2.08963 134.55 1.35363 135.083 0.894968C135.627 0.425635 136.475 0.190969 137.627 0.190969V1.71097C137.073 1.71097 136.683 1.81763 136.459 2.03097C136.235 2.23364 136.123 2.59097 136.123 3.10297V3.72697H137.755V5.21497ZM151.464 3.72697L146.056 16.687H144.168L145.96 12.399L142.488 3.72697H144.52L147 10.447L149.576 3.72697H151.464ZM156.665 12.687C155.833 12.687 155.081 12.5003 154.409 12.127C153.737 11.743 153.209 11.2096 152.825 10.527C152.441 9.83364 152.249 9.03364 152.249 8.12697C152.249 7.23097 152.446 6.4363 152.841 5.74297C153.235 5.04964 153.774 4.5163 154.457 4.14297C155.139 3.76964 155.902 3.58297 156.745 3.58297C157.587 3.58297 158.35 3.76964 159.033 4.14297C159.715 4.5163 160.254 5.04964 160.649 5.74297C161.043 6.4363 161.241 7.23097 161.241 8.12697C161.241 9.02297 161.038 9.81764 160.633 10.511C160.227 11.2043 159.673 11.743 158.969 12.127C158.275 12.5003 157.507 12.687 156.665 12.687ZM156.665 11.103C157.134 11.103 157.571 10.991 157.977 10.767C158.393 10.543 158.729 10.207 158.985 9.75897C159.241 9.31097 159.369 8.76697 159.369 8.12697C159.369 7.48697 159.246 6.9483 159.001 6.51097C158.755 6.06297 158.43 5.72697 158.025 5.50297C157.619 5.27897 157.182 5.16697 156.713 5.16697C156.243 5.16697 155.806 5.27897 155.401 5.50297C155.006 5.72697 154.691 6.06297 154.457 6.51097C154.222 6.9483 154.105 7.48697 154.105 8.12697C154.105 9.0763 154.345 9.8123 154.825 10.335C155.315 10.847 155.929 11.103 156.665 11.103ZM171.028 3.72697V12.543H169.204V11.503C168.916 11.8656 168.537 12.1536 168.068 12.367C167.609 12.5696 167.118 12.671 166.596 12.671C165.902 12.671 165.278 12.527 164.724 12.239C164.18 11.951 163.748 11.5243 163.428 10.959C163.118 10.3936 162.964 9.71097 162.964 8.91097V3.72697H164.772V8.63897C164.772 9.4283 164.969 10.0363 165.364 10.463C165.758 10.879 166.297 11.087 166.98 11.087C167.662 11.087 168.201 10.879 168.596 10.463C169.001 10.0363 169.204 9.4283 169.204 8.63897V3.72697H171.028ZM175.258 5.00697C175.525 4.55897 175.877 4.2123 176.314 3.96697C176.762 3.71097 177.29 3.58297 177.898 3.58297V5.47097H177.434C176.72 5.47097 176.176 5.6523 175.802 6.01497C175.44 6.37764 175.258 7.00697 175.258 7.90297V12.543H173.434V3.72697H175.258V5.00697ZM185.555 5.02297C185.865 4.61764 186.286 4.2763 186.819 3.99897C187.353 3.72164 187.955 3.58297 188.627 3.58297C189.395 3.58297 190.094 3.77497 190.723 4.15897C191.363 4.5323 191.865 5.0603 192.227 5.74297C192.59 6.42564 192.771 7.20963 192.771 8.09497C192.771 8.9803 192.59 9.77497 192.227 10.479C191.865 11.1723 191.363 11.7163 190.723 12.111C190.094 12.495 189.395 12.687 188.627 12.687C187.955 12.687 187.358 12.5536 186.835 12.287C186.313 12.0096 185.886 11.6683 185.555 11.263V16.735H183.731V3.72697H185.555V5.02297ZM190.915 8.09497C190.915 7.48697 190.787 6.9643 190.531 6.52697C190.286 6.07897 189.955 5.74297 189.539 5.51897C189.134 5.2843 188.697 5.16697 188.227 5.16697C187.769 5.16697 187.331 5.2843 186.915 5.51897C186.51 5.75364 186.179 6.09497 185.923 6.54297C185.678 6.99097 185.555 7.51897 185.555 8.12697C185.555 8.73497 185.678 9.2683 185.923 9.72697C186.179 10.175 186.51 10.5163 186.915 10.751C187.331 10.9856 187.769 11.103 188.227 11.103C188.697 11.103 189.134 10.9856 189.539 10.751C189.955 10.5056 190.286 10.1536 190.531 9.69497C190.787 9.2363 190.915 8.70297 190.915 8.09497ZM195.503 2.55897C195.172 2.55897 194.895 2.44697 194.671 2.22297C194.447 1.99897 194.335 1.72164 194.335 1.39097C194.335 1.0603 194.447 0.782968 194.671 0.558969C194.895 0.334968 195.172 0.222968 195.503 0.222968C195.823 0.222968 196.095 0.334968 196.319 0.558969C196.543 0.782968 196.655 1.0603 196.655 1.39097C196.655 1.72164 196.543 1.99897 196.319 2.22297C196.095 2.44697 195.823 2.55897 195.503 2.55897ZM196.399 3.72697V12.543H194.575V3.72697H196.399ZM200.922 5.21497V10.095C200.922 10.4256 200.996 10.6656 201.146 10.815C201.306 10.9536 201.572 11.023 201.946 11.023H203.066V12.543H201.626C200.804 12.543 200.175 12.351 199.738 11.967C199.3 11.583 199.082 10.959 199.082 10.095V5.21497H198.042V3.72697H199.082V1.53497H200.922V3.72697H203.066V5.21497H200.922ZM204.139 8.12697C204.139 7.2203 204.32 6.42564 204.683 5.74297C205.056 5.04964 205.568 4.5163 206.219 4.14297C206.87 3.76964 207.616 3.58297 208.459 3.58297C209.526 3.58297 210.406 3.83897 211.099 4.35097C211.803 4.8523 212.278 5.5723 212.523 6.51097H210.555C210.395 6.07364 210.139 5.7323 209.787 5.48697C209.435 5.24164 208.992 5.11897 208.459 5.11897C207.712 5.11897 207.115 5.38564 206.667 5.91897C206.23 6.44164 206.011 7.17764 206.011 8.12697C206.011 9.0763 206.23 9.81764 206.667 10.351C207.115 10.8843 207.712 11.151 208.459 11.151C209.515 11.151 210.214 10.687 210.555 9.75897H212.523C212.267 10.655 211.787 11.3696 211.083 11.903C210.379 12.4256 209.504 12.687 208.459 12.687C207.616 12.687 206.87 12.5003 206.219 12.127C205.568 11.743 205.056 11.2096 204.683 10.527C204.32 9.83364 204.139 9.03364 204.139 8.12697ZM218.901 3.58297C219.573 3.58297 220.17 3.72697 220.693 4.01497C221.226 4.30297 221.642 4.72963 221.941 5.29497C222.25 5.8603 222.405 6.54297 222.405 7.34297V12.543H220.597V7.61497C220.597 6.82563 220.399 6.22297 220.005 5.80697C219.61 5.3803 219.071 5.16697 218.389 5.16697C217.706 5.16697 217.162 5.3803 216.757 5.80697C216.362 6.22297 216.165 6.82563 216.165 7.61497V12.543H214.341V0.702969H216.165V4.75097C216.474 4.37764 216.863 4.08964 217.333 3.88697C217.813 3.6843 218.335 3.58297 218.901 3.58297Z" fill="#2F281E"/>
</svg>
